<svg width="257" height="257" viewBox="0 0 257 257" fill="none" xmlns="http://www.w3.org/2000/svg">
<g opacity="0.13" filter="url(#filter0_d)">
<mask id="path-1-inside-1" fill="white">
<path fill-rule="evenodd" clip-rule="evenodd" d="M252.005 124.88C252.005 129.169 251.787 133.407 251.361 137.584V185.874V186.506V187.374V188.006V247.5V249H249.861H190.527H189.898H189.027H188.398H129.064H128.425H127.564H126.925H67.5918H66.9622H66.0918H65.4622H6.12891H4.62891V247.5V188.006V187.374V186.506V185.874V137.435C4.21301 133.306 4 129.118 4 124.88C4 120.642 4.21301 116.453 4.62891 112.325V64.7541V64.122V63.2541V62.622V3.12818V1.62818H6.12891H65.4622H66.0982H66.9622H67.5982H115.398C119.543 1.21019 123.748 0.996094 128.002 0.996094C132.257 0.996094 136.462 1.21019 140.607 1.62818H188.398H189.027H189.898H190.527H249.86H251.36V3.12818V62.622V63.2541H251.361V64.7541V112.176C251.787 116.353 252.005 120.591 252.005 124.88ZM249.861 64.7541V101.822C247.37 88.6049 242.779 76.1292 236.447 64.7541H249.861ZM249.861 112.254C248.104 95.1277 242.812 79.0478 234.726 64.7541H190.527V124.248H249.861V112.254ZM249.86 62.622H235.232C224.451 44.1292 209.015 28.6789 190.527 17.8738V3.12818H249.86V62.622ZM233.492 62.622C223.012 44.9387 208.205 30.1178 190.527 19.6151V62.622H233.492ZM188.398 3.12818V16.6576C176.94 10.2616 164.361 5.62923 151.03 3.12818H188.398ZM188.398 18.379C174.007 10.2161 157.798 4.88053 140.53 3.12818H129.065V62.622H188.398V18.379ZM67.5982 3.12818H104.975C91.6405 5.62986 79.0588 10.2639 67.5982 16.6624V3.12818ZM115.475 3.12818C98.2028 4.88088 81.9915 10.2182 67.5982 18.3838V62.622H126.932V3.12818H115.475ZM65.4622 3.12818V17.8828C46.9815 28.6875 31.5506 44.1344 20.7728 62.622H6.12891V3.12818H65.4622ZM65.4622 19.6243C47.7909 30.1264 32.9892 44.9438 22.5131 62.622H65.4622V19.6243ZM6.12891 64.7541H19.558C13.2128 76.1523 8.6157 88.6554 6.12891 101.902V64.7541ZM6.12891 126.38V137.358C7.90573 154.887 13.3854 171.323 21.7742 185.874H65.4622V126.38H6.12891ZM6.12891 185.874V147.858C8.67899 161.441 13.4481 174.243 20.0459 185.874H6.12891ZM6.12891 188.006H21.2839C32.0359 206.109 47.2717 221.242 65.4622 231.877V247.5H6.12891V188.006ZM67.5918 247.5V233.094C80.5474 240.328 94.9359 245.307 110.225 247.5H67.5918ZM67.5918 231.372C85.1273 241.322 105.362 247.073 126.925 247.259V188.006H67.5918V231.372ZM188.398 247.5H145.78C161.063 245.308 175.446 240.332 188.398 233.102V247.5ZM129.064 247.259C150.628 247.076 170.862 241.327 188.398 231.381V188.006H129.064V247.259ZM190.527 247.5V231.886C208.725 221.25 223.966 206.114 234.721 188.006H249.861V247.5H190.527ZM190.527 230.144C207.915 219.814 222.526 205.306 232.972 188.006H190.527V230.144ZM190.527 185.874H234.23C242.596 171.364 248.068 154.979 249.861 137.506V126.38H190.527V185.874ZM249.861 147.938C247.307 161.492 242.544 174.266 235.959 185.874H249.861V147.938ZM23.0326 188.006C33.4761 205.301 48.0811 219.806 65.4622 230.135V188.006H23.0326ZM21.2785 64.7541C13.1694 79.089 7.87048 95.2204 6.12891 112.402V124.248H65.4622V64.7541H21.2785ZM67.5918 64.7541H126.925V68.375H96.6071V68.3751H80.9102V124.248H67.5918V64.7541ZM80.9102 126.38H67.5918V185.874H126.925V126.38H100.964V181.81H80.9102V126.38ZM100.964 124.248H126.925V88.445H100.964V124.248ZM129.064 68.375H157.641H162H177.694V124.248H188.398V64.7541H129.064V68.375ZM177.694 126.38H188.398V185.874H129.064V126.38H157.641V181.81H177.694V126.38ZM157.641 124.248V88.445H129.064V124.248H157.641Z"/>
</mask>
<path fill-rule="evenodd" clip-rule="evenodd" d="M252.005 124.88C252.005 129.169 251.787 133.407 251.361 137.584V185.874V186.506V187.374V188.006V247.5V249H249.861H190.527H189.898H189.027H188.398H129.064H128.425H127.564H126.925H67.5918H66.9622H66.0918H65.4622H6.12891H4.62891V247.5V188.006V187.374V186.506V185.874V137.435C4.21301 133.306 4 129.118 4 124.88C4 120.642 4.21301 116.453 4.62891 112.325V64.7541V64.122V63.2541V62.622V3.12818V1.62818H6.12891H65.4622H66.0982H66.9622H67.5982H115.398C119.543 1.21019 123.748 0.996094 128.002 0.996094C132.257 0.996094 136.462 1.21019 140.607 1.62818H188.398H189.027H189.898H190.527H249.86H251.36V3.12818V62.622V63.2541H251.361V64.7541V112.176C251.787 116.353 252.005 120.591 252.005 124.88ZM249.861 64.7541V101.822C247.37 88.6049 242.779 76.1292 236.447 64.7541H249.861ZM249.861 112.254C248.104 95.1277 242.812 79.0478 234.726 64.7541H190.527V124.248H249.861V112.254ZM249.86 62.622H235.232C224.451 44.1292 209.015 28.6789 190.527 17.8738V3.12818H249.86V62.622ZM233.492 62.622C223.012 44.9387 208.205 30.1178 190.527 19.6151V62.622H233.492ZM188.398 3.12818V16.6576C176.94 10.2616 164.361 5.62923 151.03 3.12818H188.398ZM188.398 18.379C174.007 10.2161 157.798 4.88053 140.53 3.12818H129.065V62.622H188.398V18.379ZM67.5982 3.12818H104.975C91.6405 5.62986 79.0588 10.2639 67.5982 16.6624V3.12818ZM115.475 3.12818C98.2028 4.88088 81.9915 10.2182 67.5982 18.3838V62.622H126.932V3.12818H115.475ZM65.4622 3.12818V17.8828C46.9815 28.6875 31.5506 44.1344 20.7728 62.622H6.12891V3.12818H65.4622ZM65.4622 19.6243C47.7909 30.1264 32.9892 44.9438 22.5131 62.622H65.4622V19.6243ZM6.12891 64.7541H19.558C13.2128 76.1523 8.6157 88.6554 6.12891 101.902V64.7541ZM6.12891 126.38V137.358C7.90573 154.887 13.3854 171.323 21.7742 185.874H65.4622V126.38H6.12891ZM6.12891 185.874V147.858C8.67899 161.441 13.4481 174.243 20.0459 185.874H6.12891ZM6.12891 188.006H21.2839C32.0359 206.109 47.2717 221.242 65.4622 231.877V247.5H6.12891V188.006ZM67.5918 247.5V233.094C80.5474 240.328 94.9359 245.307 110.225 247.5H67.5918ZM67.5918 231.372C85.1273 241.322 105.362 247.073 126.925 247.259V188.006H67.5918V231.372ZM188.398 247.5H145.78C161.063 245.308 175.446 240.332 188.398 233.102V247.5ZM129.064 247.259C150.628 247.076 170.862 241.327 188.398 231.381V188.006H129.064V247.259ZM190.527 247.5V231.886C208.725 221.25 223.966 206.114 234.721 188.006H249.861V247.5H190.527ZM190.527 230.144C207.915 219.814 222.526 205.306 232.972 188.006H190.527V230.144ZM190.527 185.874H234.23C242.596 171.364 248.068 154.979 249.861 137.506V126.38H190.527V185.874ZM249.861 147.938C247.307 161.492 242.544 174.266 235.959 185.874H249.861V147.938ZM23.0326 188.006C33.4761 205.301 48.0811 219.806 65.4622 230.135V188.006H23.0326ZM21.2785 64.7541C13.1694 79.089 7.87048 95.2204 6.12891 112.402V124.248H65.4622V64.7541H21.2785ZM67.5918 64.7541H126.925V68.375H96.6071V68.3751H80.9102V124.248H67.5918V64.7541ZM80.9102 126.38H67.5918V185.874H126.925V126.38H100.964V181.81H80.9102V126.38ZM100.964 124.248H126.925V88.445H100.964V124.248ZM129.064 68.375H157.641H162H177.694V124.248H188.398V64.7541H129.064V68.375ZM177.694 126.38H188.398V185.874H129.064V126.38H157.641V181.81H177.694V126.38ZM157.641 124.248V88.445H129.064V124.248H157.641Z" fill="white"/>
<path fill-rule="evenodd" clip-rule="evenodd" d="M252.005 124.88C252.005 129.169 251.787 133.407 251.361 137.584V185.874V186.506V187.374V188.006V247.5V249H249.861H190.527H189.898H189.027H188.398H129.064H128.425H127.564H126.925H67.5918H66.9622H66.0918H65.4622H6.12891H4.62891V247.5V188.006V187.374V186.506V185.874V137.435C4.21301 133.306 4 129.118 4 124.88C4 120.642 4.21301 116.453 4.62891 112.325V64.7541V64.122V63.2541V62.622V3.12818V1.62818H6.12891H65.4622H66.0982H66.9622H67.5982H115.398C119.543 1.21019 123.748 0.996094 128.002 0.996094C132.257 0.996094 136.462 1.21019 140.607 1.62818H188.398H189.027H189.898H190.527H249.86H251.36V3.12818V62.622V63.2541H251.361V64.7541V112.176C251.787 116.353 252.005 120.591 252.005 124.88ZM249.861 64.7541V101.822C247.37 88.6049 242.779 76.1292 236.447 64.7541H249.861ZM249.861 112.254C248.104 95.1277 242.812 79.0478 234.726 64.7541H190.527V124.248H249.861V112.254ZM249.86 62.622H235.232C224.451 44.1292 209.015 28.6789 190.527 17.8738V3.12818H249.86V62.622ZM233.492 62.622C223.012 44.9387 208.205 30.1178 190.527 19.6151V62.622H233.492ZM188.398 3.12818V16.6576C176.94 10.2616 164.361 5.62923 151.03 3.12818H188.398ZM188.398 18.379C174.007 10.2161 157.798 4.88053 140.53 3.12818H129.065V62.622H188.398V18.379ZM67.5982 3.12818H104.975C91.6405 5.62986 79.0588 10.2639 67.5982 16.6624V3.12818ZM115.475 3.12818C98.2028 4.88088 81.9915 10.2182 67.5982 18.3838V62.622H126.932V3.12818H115.475ZM65.4622 3.12818V17.8828C46.9815 28.6875 31.5506 44.1344 20.7728 62.622H6.12891V3.12818H65.4622ZM65.4622 19.6243C47.7909 30.1264 32.9892 44.9438 22.5131 62.622H65.4622V19.6243ZM6.12891 64.7541H19.558C13.2128 76.1523 8.6157 88.6554 6.12891 101.902V64.7541ZM6.12891 126.38V137.358C7.90573 154.887 13.3854 171.323 21.7742 185.874H65.4622V126.38H6.12891ZM6.12891 185.874V147.858C8.67899 161.441 13.4481 174.243 20.0459 185.874H6.12891ZM6.12891 188.006H21.2839C32.0359 206.109 47.2717 221.242 65.4622 231.877V247.5H6.12891V188.006ZM67.5918 247.5V233.094C80.5474 240.328 94.9359 245.307 110.225 247.5H67.5918ZM67.5918 231.372C85.1273 241.322 105.362 247.073 126.925 247.259V188.006H67.5918V231.372ZM188.398 247.5H145.78C161.063 245.308 175.446 240.332 188.398 233.102V247.5ZM129.064 247.259C150.628 247.076 170.862 241.327 188.398 231.381V188.006H129.064V247.259ZM190.527 247.5V231.886C208.725 221.25 223.966 206.114 234.721 188.006H249.861V247.5H190.527ZM190.527 230.144C207.915 219.814 222.526 205.306 232.972 188.006H190.527V230.144ZM190.527 185.874H234.23C242.596 171.364 248.068 154.979 249.861 137.506V126.38H190.527V185.874ZM249.861 147.938C247.307 161.492 242.544 174.266 235.959 185.874H249.861V147.938ZM23.0326 188.006C33.4761 205.301 48.0811 219.806 65.4622 230.135V188.006H23.0326ZM21.2785 64.7541C13.1694 79.089 7.87048 95.2204 6.12891 112.402V124.248H65.4622V64.7541H21.2785ZM67.5918 64.7541H126.925V68.375H96.6071V68.3751H80.9102V124.248H67.5918V64.7541ZM80.9102 126.38H67.5918V185.874H126.925V126.38H100.964V181.81H80.9102V126.38ZM100.964 124.248H126.925V88.445H100.964V124.248ZM129.064 68.375H157.641H162H177.694V124.248H188.398V64.7541H129.064V68.375ZM177.694 126.38H188.398V185.874H129.064V126.38H157.641V181.81H177.694V126.38ZM157.641 124.248V88.445H129.064V124.248H157.641Z" stroke="black" stroke-width="2" mask="url(#path-1-inside-1)"/>
<path fill-rule="evenodd" clip-rule="evenodd" d="M252.005 124.88C252.005 129.169 251.787 133.407 251.361 137.584V185.874V186.506V187.374V188.006V247.5V249H249.861H190.527H189.898H189.027H188.398H129.064H128.425H127.564H126.925H67.5918H66.9622H66.0918H65.4622H6.12891H4.62891V247.5V188.006V187.374V186.506V185.874V137.435C4.21301 133.306 4 129.118 4 124.88C4 120.642 4.21301 116.453 4.62891 112.325V64.7541V64.122V63.2541V62.622V3.12818V1.62818H6.12891H65.4622H66.0982H66.9622H67.5982H115.398C119.543 1.21019 123.748 0.996094 128.002 0.996094C132.257 0.996094 136.462 1.21019 140.607 1.62818H188.398H189.027H189.898H190.527H249.86H251.36V3.12818V62.622V63.2541H251.361V64.7541V112.176C251.787 116.353 252.005 120.591 252.005 124.88ZM249.861 64.7541V101.822C247.37 88.6049 242.779 76.1292 236.447 64.7541H249.861ZM249.861 112.254C248.104 95.1277 242.812 79.0478 234.726 64.7541H190.527V124.248H249.861V112.254ZM249.86 62.622H235.232C224.451 44.1292 209.015 28.6789 190.527 17.8738V3.12818H249.86V62.622ZM233.492 62.622C223.012 44.9387 208.205 30.1178 190.527 19.6151V62.622H233.492ZM188.398 3.12818V16.6576C176.94 10.2616 164.361 5.62923 151.03 3.12818H188.398ZM188.398 18.379C174.007 10.2161 157.798 4.88053 140.53 3.12818H129.065V62.622H188.398V18.379ZM67.5982 3.12818H104.975C91.6405 5.62986 79.0588 10.2639 67.5982 16.6624V3.12818ZM115.475 3.12818C98.2028 4.88088 81.9915 10.2182 67.5982 18.3838V62.622H126.932V3.12818H115.475ZM65.4622 3.12818V17.8828C46.9815 28.6875 31.5506 44.1344 20.7728 62.622H6.12891V3.12818H65.4622ZM65.4622 19.6243C47.7909 30.1264 32.9892 44.9438 22.5131 62.622H65.4622V19.6243ZM6.12891 64.7541H19.558C13.2128 76.1523 8.6157 88.6554 6.12891 101.902V64.7541ZM6.12891 126.38V137.358C7.90573 154.887 13.3854 171.323 21.7742 185.874H65.4622V126.38H6.12891ZM6.12891 185.874V147.858C8.67899 161.441 13.4481 174.243 20.0459 185.874H6.12891ZM6.12891 188.006H21.2839C32.0359 206.109 47.2717 221.242 65.4622 231.877V247.5H6.12891V188.006ZM67.5918 247.5V233.094C80.5474 240.328 94.9359 245.307 110.225 247.5H67.5918ZM67.5918 231.372C85.1273 241.322 105.362 247.073 126.925 247.259V188.006H67.5918V231.372ZM188.398 247.5H145.78C161.063 245.308 175.446 240.332 188.398 233.102V247.5ZM129.064 247.259C150.628 247.076 170.862 241.327 188.398 231.381V188.006H129.064V247.259ZM190.527 247.5V231.886C208.725 221.25 223.966 206.114 234.721 188.006H249.861V247.5H190.527ZM190.527 230.144C207.915 219.814 222.526 205.306 232.972 188.006H190.527V230.144ZM190.527 185.874H234.23C242.596 171.364 248.068 154.979 249.861 137.506V126.38H190.527V185.874ZM249.861 147.938C247.307 161.492 242.544 174.266 235.959 185.874H249.861V147.938ZM23.0326 188.006C33.4761 205.301 48.0811 219.806 65.4622 230.135V188.006H23.0326ZM21.2785 64.7541C13.1694 79.089 7.87048 95.2204 6.12891 112.402V124.248H65.4622V64.7541H21.2785ZM67.5918 64.7541H126.925V68.375H96.6071V68.3751H80.9102V124.248H67.5918V64.7541ZM80.9102 126.38H67.5918V185.874H126.925V126.38H100.964V181.81H80.9102V126.38ZM100.964 124.248H126.925V88.445H100.964V124.248ZM129.064 68.375H157.641H162H177.694V124.248H188.398V64.7541H129.064V68.375ZM177.694 126.38H188.398V185.874H129.064V126.38H157.641V181.81H177.694V126.38ZM157.641 124.248V88.445H129.064V124.248H157.641Z" stroke="url(#paint0_linear)" stroke-width="2" mask="url(#path-1-inside-1)"/>
</g>
<defs>
<filter id="filter0_d" x="0" y="0.996094" width="256.005" height="256.004" filterUnits="userSpaceOnUse" color-interpolation-filters="sRGB">
<feFlood flood-opacity="0" result="BackgroundImageFix"/>
<feColorMatrix in="SourceAlpha" type="matrix" values="0 0 0 0 0 0 0 0 0 0 0 0 0 0 0 0 0 0 127 0"/>
<feOffset dy="4"/>
<feGaussianBlur stdDeviation="2"/>
<feColorMatrix type="matrix" values="0 0 0 0 0 0 0 0 0 0 0 0 0 0 0 0 0 0 0.25 0"/>
<feBlend mode="normal" in2="BackgroundImageFix" result="effect1_dropShadow"/>
<feBlend mode="normal" in="SourceGraphic" in2="effect1_dropShadow" result="shape"/>
</filter>
<linearGradient id="paint0_linear" x1="128.002" y1="0.996094" x2="128.002" y2="249" gradientUnits="userSpaceOnUse">
<stop stop-color="white"/>
<stop offset="1" stop-color="white" stop-opacity="0"/>
</linearGradient>
</defs>
</svg>
